<svg xmlns="http://www.w3.org/2000/svg" viewBox="0 0 29 29"><defs><style>.cls-1{fill:#006cb2;}.cls-2{fill:none;stroke:#006cb2;stroke-miterlimit:10;stroke-width:2px;}.cls-3{fill:#fff;}</style></defs><title>16</title><g id="Ebene_2" data-name="Ebene 2"><g id="bahnen"><circle class="cls-1" cx="14.5" cy="14.5" r="10.32"/><circle class="cls-2" cx="14.5" cy="14.5" r="13.5"/><path class="cls-3" d="M8.94,13.59v-1a7.18,7.18,0,0,0,1-.09,1.52,1.52,0,0,0,.76-.41,1.42,1.42,0,0,0,.3-.56,1.18,1.18,0,0,0,.05-.31h1.28V19H10.77V13.59Z"/><path class="cls-3" d="M18.34,13.14a.77.77,0,0,0-.15-.42.84.84,0,0,0-.75-.36,1.11,1.11,0,0,0-1.06.84,5.7,5.7,0,0,0-.24,1.36,1.69,1.69,0,0,1,.67-.49,2.1,2.1,0,0,1,.86-.16,2.25,2.25,0,0,1,1.7.71,2.53,2.53,0,0,1,.66,1.8,3.07,3.07,0,0,1-.65,1.92,2.39,2.39,0,0,1-2,.83,2.32,2.32,0,0,1-2.17-1.23,5,5,0,0,1-.55-2.48A11.2,11.2,0,0,1,14.72,14a4.45,4.45,0,0,1,.52-1.66,2.71,2.71,0,0,1,.87-.91,2.47,2.47,0,0,1,1.3-.34,2.57,2.57,0,0,1,1.73.56,2.08,2.08,0,0,1,.72,1.48Zm-1.82,4.39a1.1,1.1,0,0,0,.86.4.94.94,0,0,0,.8-.39,1.56,1.56,0,0,0,.3-1,1.46,1.46,0,0,0-.34-1.05,1.06,1.06,0,0,0-.81-.36,1.15,1.15,0,0,0-.7.23,1.35,1.35,0,0,0-.45,1.13A1.52,1.52,0,0,0,16.52,17.53Z"/></g></g></svg>