<svg xmlns="http://www.w3.org/2000/svg" viewBox="0 0 29 29"><defs><style>.cls-1{fill:#855946;}.cls-2{fill:none;stroke:#855946;stroke-miterlimit:10;stroke-width:2px;}.cls-3{fill:#fff;}</style></defs><title>17</title><g id="Ebene_2" data-name="Ebene 2"><g id="bahnen"><circle class="cls-1" cx="14.5" cy="14.5" r="10.32"/><circle class="cls-2" cx="14.5" cy="14.5" r="13.5"/><path class="cls-3" d="M8.73,13.56V12.48a7.34,7.34,0,0,0,1-.1,1.48,1.48,0,0,0,.78-.42,1.4,1.4,0,0,0,.31-.58,1.45,1.45,0,0,0,.06-.33h1.33v8.08H10.63V13.56Z"/><path class="cls-3" d="M20.3,12.4a11.95,11.95,0,0,0-2.06,3.11,11.24,11.24,0,0,0-.62,1.84,7.62,7.62,0,0,0-.27,1.78H15.7a9.75,9.75,0,0,1,1.43-4.52,11,11,0,0,1,1.46-2h-4l0-1.42H20.3Z"/></g></g></svg>