<svg xmlns="http://www.w3.org/2000/svg" viewBox="0 0 40 50.79"><defs><style>.cls-1{fill:#999;}.cls-2{fill:#fff;}</style></defs><title>Bayerische Staatssammlung</title><g id="Ebene_2" data-name="Ebene 2"><g id="landmarks_neu" data-name="landmarks neu"><path class="cls-1" d="M37.89,41.21l-15.81,9a4.18,4.18,0,0,1-4.16,0l-15.81-9A4.21,4.21,0,0,1,0,37.57V4.19A4.2,4.2,0,0,1,4.19,0H35.81A4.2,4.2,0,0,1,40,4.19V37.57A4.21,4.21,0,0,1,37.89,41.21Z"/><path class="cls-2" d="M30.94,10.59h0v0a.17.17,0,0,0,0-.07.14.14,0,0,0,0-.06s0,0,0-.05l0-.06,0,0,0,0,0,0-.05,0,0,0-.06,0,0,0L19.64,5.33a.6.6,0,0,0-.49,0l-10.79,5,0,0-.07,0s0,0,0,0a.08.08,0,0,0,0,0s0,0,0,0l0,0,0,.05,0,0s0,0,0,.06l0,.05v.13H8l.37,24.38a.6.6,0,0,0,.61.59l21.73-.33a.59.59,0,0,0,.59-.6l-.37-24.39ZM23,27.63l-6.13.1-.09-5.49s0,0,0,0a3.06,3.06,0,0,1,6.12-.09v0ZM24.11,22a4.26,4.26,0,0,0-8.52.13.13.13,0,0,0,0,.06l.09,5.53-6.2.1L9.3,16.51l20.53-.31L30,27.53l-5.8.09-.08-5.54S24.11,22,24.11,22ZM9.28,15.31l-.06-3.8,20.53-.31.06,3.8ZM19.41,6.54,27.53,10l-16.12.24Zm2.33,28,0-2h0a1.71,1.71,0,0,0-3.41,0h0l0,2-8.76.13L9.49,29l6.79-.11,7.34-.11,6.4-.09.08,5.66Z"/><rect class="cls-2" x="11.85" y="18.73" width="1.2" height="7.27" transform="translate(-0.33 0.19) rotate(-0.86)"/><rect class="cls-2" x="11.72" y="12.73" width="1.2" height="1.4" transform="translate(-0.2 0.19) rotate(-0.86)"/><rect class="cls-2" x="26.12" y="12.51" width="1.2" height="1.4" transform="translate(-0.2 0.4) rotate(-0.86)"/><rect class="cls-2" x="12" y="30.59" width="1.2" height="2.73" transform="translate(-0.48 0.19) rotate(-0.86)"/><rect class="cls-2" x="26.39" y="30.37" width="1.2" height="2.73" transform="translate(-0.47 0.41) rotate(-0.86)"/><rect class="cls-2" x="26.25" y="18.57" width="1.2" height="7.27" transform="translate(-0.33 0.41) rotate(-0.86)"/></g></g></svg>