<svg xmlns="http://www.w3.org/2000/svg" viewBox="0 0 29 29"><defs><style>.cls-1{fill:#52822e;}.cls-2{fill:none;stroke:#52822e;stroke-miterlimit:10;stroke-width:2px;}.cls-3{fill:#fff;}</style></defs><title>U1</title><g id="Ebene_2" data-name="Ebene 2"><g id="bahnen"><circle class="cls-1" cx="14.5" cy="14.5" r="10.32"/><circle class="cls-2" cx="14.5" cy="14.5" r="13.5"/><path class="cls-3" d="M8.9,11.08h1.67v4.83a2.71,2.71,0,0,0,.19,1.19,1.27,1.27,0,0,0,1.3.66,1.27,1.27,0,0,0,1.29-.66,2.71,2.71,0,0,0,.19-1.19V11.08h1.68v4.84a4,4,0,0,1-.39,2,2.9,2.9,0,0,1-2.77,1.28,2.89,2.89,0,0,1-2.77-1.28,4,4,0,0,1-.39-2Z"/><path class="cls-3" d="M16.72,13.61v-1a8.52,8.52,0,0,0,1-.1,1.39,1.39,0,0,0,.74-.41,1.31,1.31,0,0,0,.3-.55,1.24,1.24,0,0,0,.06-.31H20.1V19H18.54V13.61Z"/></g></g></svg>