<svg xmlns="http://www.w3.org/2000/svg" viewBox="0 0 29 29"><defs><style>.cls-1{fill:#c1092f;}.cls-2{fill:none;stroke:#c1092f;stroke-miterlimit:10;stroke-width:2px;}.cls-3{fill:#fff;}</style></defs><title>U2</title><g id="Ebene_2" data-name="Ebene 2"><g id="bahnen"><circle class="cls-1" cx="14.5" cy="14.5" r="10.32"/><circle class="cls-2" cx="14.5" cy="14.5" r="13.5"/><path class="cls-3" d="M8.24,11.08H9.91v4.83a2.87,2.87,0,0,0,.19,1.19,1.28,1.28,0,0,0,1.3.66,1.25,1.25,0,0,0,1.29-.66,2.68,2.68,0,0,0,.2-1.19V11.08h1.67v4.84a4,4,0,0,1-.39,2,2.89,2.89,0,0,1-2.77,1.28,2.9,2.9,0,0,1-2.77-1.28,4,4,0,0,1-.39-2Z"/><path class="cls-3" d="M16,17.43a4.32,4.32,0,0,1,1.54-1.64,10.33,10.33,0,0,0,1.36-1.08,1.59,1.59,0,0,0,.48-1.11,1.25,1.25,0,0,0-.27-.82,1,1,0,0,0-.78-.32,1,1,0,0,0-.95.52,2.73,2.73,0,0,0-.17.95H15.73a3.9,3.9,0,0,1,.36-1.6,2.24,2.24,0,0,1,2.17-1.16,2.76,2.76,0,0,1,1.95.68,2.35,2.35,0,0,1,.73,1.8,2.38,2.38,0,0,1-.52,1.53,4.83,4.83,0,0,1-1.1,1l-.61.43c-.38.27-.65.47-.79.59a1.78,1.78,0,0,0-.35.42H21V19h-5.3A3.65,3.65,0,0,1,16,17.43Z"/></g></g></svg>