<svg xmlns="http://www.w3.org/2000/svg" viewBox="0 0 29 29"><defs><style>.cls-1{fill:#02a983;}.cls-2{fill:none;stroke:#02a983;stroke-miterlimit:10;stroke-width:2px;}.cls-3{fill:#fff;}</style></defs><title>U4</title><g id="Ebene_2" data-name="Ebene 2"><g id="bahnen"><circle class="cls-1" cx="14.5" cy="14.5" r="10.32"/><circle class="cls-2" cx="14.5" cy="14.5" r="13.5"/><path class="cls-3" d="M8.21,11.08H9.88v4.83a2.71,2.71,0,0,0,.19,1.19,1.27,1.27,0,0,0,1.3.66,1.27,1.27,0,0,0,1.29-.66,2.71,2.71,0,0,0,.19-1.19V11.08h1.68v4.84a4,4,0,0,1-.39,2,2.9,2.9,0,0,1-2.77,1.28A2.89,2.89,0,0,1,8.6,17.87a4,4,0,0,1-.39-2Z"/><path class="cls-3" d="M21,17.29h-.87V19H18.63V17.29H15.56V16l2.85-4.7h1.71v4.83H21Zm-2.36-1.2V12.76l-1.94,3.33Z"/></g></g></svg>