<svg xmlns="http://www.w3.org/2000/svg" viewBox="0 0 29 29"><defs><style>.cls-1{fill:#bb7a00;}.cls-2{fill:none;stroke:#bb7a00;stroke-miterlimit:10;stroke-width:2px;}.cls-3{fill:#fff;}</style></defs><title>U5</title><g id="Ebene_2" data-name="Ebene 2"><g id="bahnen"><circle class="cls-1" cx="14.5" cy="14.5" r="10.32"/><circle class="cls-2" cx="14.5" cy="14.5" r="13.5"/><path class="cls-3" d="M8.24,11.25H9.91v4.83a2.9,2.9,0,0,0,.19,1.19,1.28,1.28,0,0,0,1.3.66,1.25,1.25,0,0,0,1.29-.66,2.71,2.71,0,0,0,.2-1.19V11.25h1.67v4.84A4.06,4.06,0,0,1,14.17,18a2.91,2.91,0,0,1-2.77,1.28A2.92,2.92,0,0,1,8.63,18a4.06,4.06,0,0,1-.39-1.95Z"/><path class="cls-3" d="M17.11,17.05a1.46,1.46,0,0,0,.35.76,1,1,0,0,0,.74.27,1,1,0,0,0,.86-.39,1.64,1.64,0,0,0,.3-1,1.73,1.73,0,0,0-.28-1,1,1,0,0,0-.86-.41,1.62,1.62,0,0,0-.48.07,1,1,0,0,0-.54.48l-1.36-.06.54-4.28h4.26v1.29H17.48l-.28,1.69a3.2,3.2,0,0,1,.55-.3,2.36,2.36,0,0,1,.8-.12,2.43,2.43,0,0,1,1.68.64,2.39,2.39,0,0,1,.71,1.88,3,3,0,0,1-.68,1.92,2.52,2.52,0,0,1-2.06.84,2.78,2.78,0,0,1-1.82-.59,2.36,2.36,0,0,1-.79-1.68Z"/></g></g></svg>