<svg xmlns="http://www.w3.org/2000/svg" viewBox="0 0 241 191.92"><defs><style>.cls-1{fill:#fff;stroke:gray;opacity:0.9;}.cls-1,.cls-14,.cls-15{stroke-miterlimit:10;}.cls-2{font-size:23px;}.cls-10,.cls-11,.cls-13,.cls-2,.cls-5,.cls-6,.cls-7{font-family:HelveticaNeue-Medium, Helvetica Neue;font-weight:500;}.cls-13,.cls-3{font-size:12px;}.cls-3{fill:#52822e;font-family:HelveticaNeue-Bold, Helvetica Neue;font-weight:700;}.cls-13,.cls-4,.cls-5{fill:#666;}.cls-10,.cls-11,.cls-6,.cls-7{fill:#000;}.cls-7{letter-spacing:0.1em;}.cls-8{fill:#c1092f;}.cls-9{fill:#ec1b23;}.cls-10{letter-spacing:-0.06em;}.cls-11{letter-spacing:-0.09em;}.cls-12{fill:#006cb2;}.cls-14,.cls-15{fill:none;stroke:#666;stroke-width:4px;}.cls-14{opacity:0.39;}.cls-15{stroke-linecap:round;}.cls-16{fill:#f20303;}</style></defs><title>Element 4</title><g id="Ebene_2" data-name="Ebene 2"><g id="bahnen"><rect class="cls-1" x="0.5" y="0.5" width="240" height="186.55" rx="9.9"/><text class="cls-2" transform="translate(20.45 32.02)">Nächste Abfahrten</text><text class="cls-3" transform="translate(24.1 58.12)">U1<tspan class="cls-4" x="15.56" y="0"> </tspan><tspan class="cls-5" x="18.9" y="0" xml:space="preserve">   </tspan><tspan class="cls-6" x="28.91" y="0">Mangfallplatz</tspan><tspan class="cls-7" x="103.38" y="0">	</tspan><tspan class="cls-8"><tspan x="0.05" y="17" xml:space="preserve">U2    </tspan><tspan class="cls-6" x="28.96" y="17">Messestadt Ost</tspan></tspan><tspan class="cls-9"><tspan x="0.1" y="34" xml:space="preserve">19     </tspan><tspan class="cls-6" x="30.13" y="34">St. </tspan><tspan class="cls-10" x="48.57" y="34">V</tspan><tspan class="cls-6" x="55.24" y="34">eit-St</tspan><tspan class="cls-11" x="85.24" y="34">r</tspan><tspan class="cls-6" x="88.36" y="34">. </tspan></tspan><tspan class="cls-12"><tspan x="0.16" y="51">16</tspan><tspan class="cls-5" x="13.5" y="51" xml:space="preserve">     </tspan><tspan class="cls-6" x="30.18" y="51">Romanplatz</tspan></tspan><tspan x="0.21" y="68">U1</tspan><tspan class="cls-5" x="15.77" y="68" xml:space="preserve">     </tspan><tspan class="cls-6" x="32.45" y="68">Mangfallplatz</tspan></text><text class="cls-13" transform="translate(55.1 162.49)">Auslastung</text><path class="cls-14" d="M43.43,168.82a14.5,14.5,0,1,0-20.51-.3"/><path class="cls-15" d="M22.92,168.52a14.5,14.5,0,0,0,20.51.3"/><circle class="cls-4" cx="33.33" cy="158.42" r="9.5"/><text class="cls-13" transform="translate(181.76 58)">1 min<tspan class="cls-16"><tspan x="0.05" y="17">2 min</tspan><tspan class="cls-4" x="30.28" y="17" xml:space="preserve">     </tspan></tspan><tspan x="0.1" y="34">5 min</tspan><tspan class="cls-16"><tspan x="0.16" y="51">5 min</tspan></tspan><tspan x="0.21" y="68">6 min</tspan></text></g></g></svg>