<svg xmlns="http://www.w3.org/2000/svg" viewBox="0 0 29 29"><defs><style>.cls-1{fill:#ec1b23;}.cls-2{fill:none;stroke:#ec1b23;stroke-miterlimit:10;stroke-width:2px;}.cls-3{fill:#fff;}</style></defs><title>19</title><g id="Ebene_2" data-name="Ebene 2"><g id="bahnen"><circle class="cls-1" cx="14.5" cy="14.5" r="10.32"/><circle class="cls-2" cx="14.5" cy="14.5" r="13.5"/><path class="cls-3" d="M9,13.59v-1a5.63,5.63,0,0,0,1-.1,1.37,1.37,0,0,0,.75-.4,1.42,1.42,0,0,0,.3-.56,1.33,1.33,0,0,0,.06-.31h1.27V19H10.78V13.59Z"/><path class="cls-3" d="M15.35,11.89a2.42,2.42,0,0,1,1.87-.78,2.43,2.43,0,0,1,2.44,1.58A6.08,6.08,0,0,1,20,15a6.69,6.69,0,0,1-.36,2.36,2.52,2.52,0,0,1-2.53,1.8,2.62,2.62,0,0,1-1.57-.52,2.08,2.08,0,0,1-.8-1.51h1.53a.85.85,0,0,0,.29.55.84.84,0,0,0,.62.22,1.1,1.1,0,0,0,1.07-.84,4.94,4.94,0,0,0,.21-1.35,1.71,1.71,0,0,1-.45.41A2.05,2.05,0,0,1,17,16.4a2.36,2.36,0,0,1-1.64-.64,2.33,2.33,0,0,1-.72-1.85A2.85,2.85,0,0,1,15.35,11.89ZM17.92,15a1.26,1.26,0,0,0,.52-1.16,1.57,1.57,0,0,0-.31-1,1,1,0,0,0-.84-.39,1,1,0,0,0-.67.22,1.37,1.37,0,0,0-.44,1.16,1.59,1.59,0,0,0,.28,1,1.07,1.07,0,0,0,.87.35A1,1,0,0,0,17.92,15Z"/></g></g></svg>