<svg xmlns="http://www.w3.org/2000/svg" viewBox="0 0 80 80"><defs><style>.cls-1{fill:none;stroke:#ec1b23;stroke-miterlimit:10;stroke-width:3px;}.cls-2{fill:#ec1b23;}.cls-3{font-size:14px;font-family:Helvetica-Bold, Helvetica;font-weight:700;}.cls-3,.cls-5{fill:#fff;}.cls-4{font-size:12px;font-family:Helvetica;font-weight:400;}</style></defs><title>Element 4</title><g id="Ebene_2" data-name="Ebene 2"><g id="Isolationsmodus"><circle class="cls-1" cx="40" cy="40" r="38.49"/><circle class="cls-2" cx="40" cy="40" r="32.5"/><text class="cls-3" transform="translate(26.53 61.52)">7<tspan class="cls-4" x="7.79" y="0">min</tspan></text><path class="cls-5" d="M44.07,21.67l-1.13-.17H41.39V18.18h4a1.33,1.33,0,0,0,0-2.66H34.74a1.33,1.33,0,1,0,0,2.66h4V21.5H37.12a25.07,25.07,0,0,0-3,.52,9.34,9.34,0,0,0-3.06,1.32,10.13,10.13,0,0,0-1.76,2.49V40.29a5,5,0,0,0,1.79,2.8,25.51,25.51,0,0,0,2.79,1.31,13.32,13.32,0,0,0-1.41,1.24A3.76,3.76,0,0,0,32,46.77h3a.25.25,0,0,1,0-.07c.86-.85,1.6-2.13,2.62-2.44,1.45-.43,3.11-.13,4.68-.14a.59.59,0,0,1,.38.1c.82.84,1.61,1.7,2.42,2.55h2.82a4.62,4.62,0,0,0-.5-1.13A15.36,15.36,0,0,0,46,44.22c.57-.14,1-.21,1.39-.34a5,5,0,0,0,3.23-3.59V25.83C49.64,22.52,46.88,22.06,44.07,21.67ZM33.92,41.45a2,2,0,1,1,2-2A2,2,0,0,1,33.92,41.45Zm4.65-9.35H32V26.88h6.54Zm2.77,0V26.88h6.55V32.1Zm4.55,9.35a2,2,0,1,1,2-2A2,2,0,0,1,45.89,41.45Z"/></g></g></svg>