<svg xmlns="http://www.w3.org/2000/svg" viewBox="0 0 29 29"><defs><style>.cls-1{fill:#00bfe7;}.cls-2{fill:none;stroke:#00bfe7;stroke-miterlimit:10;stroke-width:2px;}.cls-3{fill:#fff;}</style></defs><title>20</title><g id="Ebene_2" data-name="Ebene 2"><g id="bahnen"><circle class="cls-1" cx="14.5" cy="14.5" r="10.32"/><circle class="cls-2" cx="14.5" cy="14.5" r="13.5"/><path class="cls-3" d="M9.09,17.45a4.32,4.32,0,0,1,1.55-1.66A11.79,11.79,0,0,0,12,14.7a1.61,1.61,0,0,0,.48-1.12,1.26,1.26,0,0,0-.27-.83,1,1,0,0,0-.79-.33,1,1,0,0,0-1,.52,2.92,2.92,0,0,0-.17,1H8.81a3.8,3.8,0,0,1,.37-1.62,2.25,2.25,0,0,1,2.18-1.17,2.78,2.78,0,0,1,2,.69,2.37,2.37,0,0,1,.74,1.82,2.49,2.49,0,0,1-.52,1.54,5.27,5.27,0,0,1-1.12,1l-.62.44c-.38.27-.65.47-.79.59a1.87,1.87,0,0,0-.36.43h3.42V19H8.73A3.52,3.52,0,0,1,9.09,17.45Z"/><path class="cls-3" d="M19.67,12.16a6.08,6.08,0,0,1,.6,3,6.06,6.06,0,0,1-.6,3,2.21,2.21,0,0,1-2.1,1.05,2.21,2.21,0,0,1-2.09-1.05,6.06,6.06,0,0,1-.6-3,6.08,6.08,0,0,1,.6-3,2.21,2.21,0,0,1,2.09-1.06A2.22,2.22,0,0,1,19.67,12.16Zm-3,5.05a.92.92,0,0,0,1.8,0,7.73,7.73,0,0,0,.21-2.06,7.71,7.71,0,0,0-.21-2.1.94.94,0,0,0-1.8,0,7.25,7.25,0,0,0-.22,2.1A7.27,7.27,0,0,0,16.67,17.21Z"/></g></g></svg>