<svg xmlns="http://www.w3.org/2000/svg" viewBox="0 0 40 50.79"><defs><style>.cls-1{fill:#999;}.cls-2{fill:#fff;}</style></defs><title>Eisbachwelle</title><g id="Ebene_2" data-name="Ebene 2"><g id="landmarks_neu" data-name="landmarks neu"><path class="cls-1" d="M37.89,41.21l-15.81,9a4.18,4.18,0,0,1-4.16,0l-15.81-9A4.21,4.21,0,0,1,0,37.57V4.19A4.2,4.2,0,0,1,4.19,0H35.81A4.2,4.2,0,0,1,40,4.19V37.57A4.21,4.21,0,0,1,37.89,41.21Z"/><path class="cls-2" d="M37,25.85a.56.56,0,0,0-.67-.42,6.69,6.69,0,0,1-6-1.87,35.87,35.87,0,0,0-4.17-3.85,4.41,4.41,0,0,1,3.45-1.66,4.27,4.27,0,0,1,4.33,4.2v0a.55.55,0,0,0,.56.56h1.61a.56.56,0,0,0,.56-.55V12.56a.54.54,0,0,0-.06-.25V9.9A.56.56,0,0,0,36,9.35H4a.55.55,0,0,0-.55.55v2.73a.54.54,0,0,0,.06.25V22.3a.56.56,0,0,0,.56.55H5.57a.58.58,0,0,0,.4-.16.59.59,0,0,0,.16-.4v0a4.27,4.27,0,0,1,4.33-4.2,4.35,4.35,0,0,1,4.24,3.3.55.55,0,0,0,1.08,0,4.18,4.18,0,0,1,.92-1.8l0,0a3.53,3.53,0,0,1,0,3.08c-.9,2.2-4.07,2.58-6.57,2.51a29.24,29.24,0,0,1-5.92-.83.56.56,0,0,0-.69.39.55.55,0,0,0,.38.68H4a30.75,30.75,0,0,0,6.16.86c4.15.11,6.72-1,7.63-3.2a4.66,4.66,0,0,0,0-4,5.8,5.8,0,0,0-.46-.75h0a.76.76,0,0,1-.08-.11l-.09-.11L17,18l-.09-.1a.94.94,0,0,0-.1-.1l-.09-.1a.94.94,0,0,0-.1-.1l-.08-.08-.23-.21-.06-.06-.14-.11L16,17.08,15.9,17l-.06,0-.15-.11,0,0c-.19-.13-.37-.26-.56-.37h0l-.18-.11h0L14.31,16a16.49,16.49,0,0,1,5.88,1.43l.13.06.14.06a28.76,28.76,0,0,1,9,6.8,7.46,7.46,0,0,0,5.58,2.33,7,7,0,0,0,1.51-.14A.55.55,0,0,0,37,25.85ZM35.45,10.46V12H4.51V10.46ZM15.24,19.7a5.51,5.51,0,0,0-4.78-2.76A5.41,5.41,0,0,0,5,21.74H4.57V13.18h31v8.56H35a5.4,5.4,0,0,0-5.42-4.8A5.53,5.53,0,0,0,25.23,19c-7.59-5.5-13.26-4-13.51-4a.57.57,0,0,0-.41.54.56.56,0,0,0,.39.53h0a12,12,0,0,1,2.9,1.31h0l.18.12,0,0a.91.91,0,0,1,.16.11l.05,0,.15.11.13.1.08.07.12.11.06,0,.12.11,0,.05.13.12,0,0,.12.13h0A5.06,5.06,0,0,0,15.24,19.7Z"/></g></g></svg>