<svg xmlns="http://www.w3.org/2000/svg" viewBox="0 0 40 50.79"><defs><style>.cls-1{fill:#999;}.cls-2{fill:#fff;}</style></defs><title>Amaskirche</title><g id="Ebene_2" data-name="Ebene 2"><g id="landmarks_neu" data-name="landmarks neu"><path class="cls-1" d="M37.89,41.21l-15.81,9a4.18,4.18,0,0,1-4.16,0l-15.81-9A4.21,4.21,0,0,1,0,37.57V4.19A4.2,4.2,0,0,1,4.19,0H35.81A4.2,4.2,0,0,1,40,4.19V37.57A4.21,4.21,0,0,1,37.89,41.21Z"/><path class="cls-2" d="M19.92,23.67a2.2,2.2,0,0,0-2.13,2.26v9h4.27v-9A2.2,2.2,0,0,0,19.92,23.67ZM21.12,34H18.73V25.93a1.2,1.2,0,1,1,2.39,0Z"/><path class="cls-2" d="M33.53,19H32.06a7.4,7.4,0,0,0-5.36-4.52,7.39,7.39,0,0,0-4.18-3.23V8.47a2.62,2.62,0,0,0-5.24,0V11.3a7.37,7.37,0,0,0-4.13,3.21A7.36,7.36,0,0,0,7.79,19H6.11a.47.47,0,0,0-.47.47v2.6a.47.47,0,0,0,.47.47H7.52V35h9.07V22.57h6.46V35h9.33V22.57h1.15A.47.47,0,0,0,34,22.1V19.5A.47.47,0,0,0,33.53,19ZM15.65,34H8.46V22.62h7.19Zm15.8,0H24V22.62h7.46ZM22.72,19a2.94,2.94,0,0,0-5.84,0H14.4a5.53,5.53,0,0,1,11,0ZM18.22,8.55v0a1.68,1.68,0,0,1,3.36,0V11a10,10,0,0,0-1.24-.14h-.87a8.71,8.71,0,0,0-1.25.15Zm-4.68,6.83a.48.48,0,0,0,.32-.23,6.75,6.75,0,0,1,5.08-3.26h.11l.11,0a7.52,7.52,0,0,1,1.5,0h.11l.11,0A6.74,6.74,0,0,1,26,15.15a.5.5,0,0,0,.32.23A6.57,6.57,0,0,1,31.05,19h-4.7a6.47,6.47,0,0,0-12.9,0H8.8A6.55,6.55,0,0,1,13.54,15.38Zm19.52,6.25H6.58V20H7.9a.5.5,0,0,0,.21.05H31.73A.54.54,0,0,0,32,20h1.11Z"/></g></g></svg>