<svg xmlns="http://www.w3.org/2000/svg" viewBox="0 0 40 50.79"><defs><style>.cls-1{fill:#999;}.cls-2{fill:#fff;}</style></defs><title>Königsplatz</title><g id="Ebene_2" data-name="Ebene 2"><g id="landmarks_neu" data-name="landmarks neu"><path class="cls-1" d="M37.89,41.21l-15.81,9a4.18,4.18,0,0,1-4.16,0l-15.81-9A4.21,4.21,0,0,1,0,37.57V4.19A4.2,4.2,0,0,1,4.19,0H35.81A4.2,4.2,0,0,1,40,4.19V37.57A4.21,4.21,0,0,1,37.89,41.21Z"/><rect class="cls-2" x="8.6" y="12.44" width="0.95" height="3.46"/><rect class="cls-2" x="10.4" y="12.44" width="0.95" height="3.46"/><rect class="cls-2" x="12.19" y="12.44" width="0.95" height="3.46"/><path class="cls-2" d="M33.52,10H25.79a.47.47,0,0,0-.47.47v6.49l-4.83-2.16a.44.44,0,0,0-.39,0L15.18,17V10.42a.47.47,0,0,0-.47-.47H7a.47.47,0,0,0-.48.47V30a.48.48,0,0,0,.48.48h7.73l.16,0H25.63l.16,0h7.73A.48.48,0,0,0,34,30V10.42A.47.47,0,0,0,33.52,10ZM20.3,15.7l4.43,2H15.86ZM14.23,29.47H11.94v0H7.45V10.9h6.78v6.48l-.69.31h0a.48.48,0,0,0-.48.47v.06h0v2a.49.49,0,0,0,.48.48h.69Zm2.82,0H15.23V20.69h1.82Zm2.77,0H18V20.69h1.82Zm2.77,0H20.77V20.69h1.82Zm2.73,0H23.54V20.69h1.78ZM14,19.75V18.59H26.56v1.16Zm19,9.72H26.32V20.69h.73a.48.48,0,0,0,.48-.48v-2h0v-.06a.47.47,0,0,0-.48-.47h0l-.78-.35V10.9h6.78Z"/><rect class="cls-2" x="27.4" y="12.44" width="0.95" height="3.46"/><rect class="cls-2" x="29.19" y="12.44" width="0.95" height="3.46"/><rect class="cls-2" x="30.98" y="12.44" width="0.95" height="3.46"/></g></g></svg>