<svg xmlns="http://www.w3.org/2000/svg" viewBox="0 0 40 50.79"><defs><style>.cls-1{fill:#999;}.cls-2{fill:#fff;}</style></defs><title>Deutshces Museum</title><g id="Ebene_2" data-name="Ebene 2"><g id="landmarks_neu" data-name="landmarks neu"><path class="cls-1" d="M37.89,41.21l-15.81,9a4.18,4.18,0,0,1-4.16,0l-15.81-9A4.21,4.21,0,0,1,0,37.57V4.19A4.2,4.2,0,0,1,4.19,0H35.81A4.2,4.2,0,0,1,40,4.19V37.57A4.21,4.21,0,0,1,37.89,41.21Z"/><path class="cls-2" d="M35,6.75H27.2a.64.64,0,0,0-.63.64V24.56H14.36v-2a4.49,4.49,0,0,0-9,0V33.33A.63.63,0,0,0,6,34H27a.71.71,0,0,0,.21,0H35a.63.63,0,0,0,.63-.63v-26A.64.64,0,0,0,35,6.75ZM6.64,23.3H13.1v1.26H6.64Zm3.23-3.79A3.24,3.24,0,0,1,13,22H6.72A3.25,3.25,0,0,1,9.87,19.51ZM6.64,25.82H26.57V32.7H6.64Zm27.72,6.92H27.83V8h6.53Z"/><rect class="cls-2" x="29.23" y="10.35" width="1.26" height="3.12"/><rect class="cls-2" x="31.61" y="10.35" width="1.26" height="3.12"/></g></g></svg>