<svg xmlns="http://www.w3.org/2000/svg" viewBox="0 0 40 50.79"><defs><style>.cls-1{fill:#999;}.cls-2{fill:#fff;}</style></defs><title>NS Documents</title><g id="Ebene_2" data-name="Ebene 2"><g id="landmarks_neu" data-name="landmarks neu"><path class="cls-1" d="M37.89,41.21l-15.81,9a4.18,4.18,0,0,1-4.16,0l-15.81-9A4.21,4.21,0,0,1,0,37.57V4.19A4.2,4.2,0,0,1,4.19,0H35.81A4.2,4.2,0,0,1,40,4.19V37.57A4.21,4.21,0,0,1,37.89,41.21Z"/><path class="cls-2" d="M32.23,7.46H8.05V33.08H21.78v.06h10.4v-.06h0ZM9,25.71V8.4h3.43v7.28h.94V8.4h.93v7.28h.94V8.4h.94v7.28h.93V8.4H18v7.28H19V8.4h.94v7.28h.93V8.4h.94v7.28h.94V8.4h.93v7.28h.94V8.4h.93v7.28h.94V8.4h.94v7.28h.93V8.4h.94v7.28h.93V8.4h1.1V24.25H21.78v7.9H9Zm14.66-.52v7h-.93v-7Zm5.62,0v7h-.94v-7Zm-1.87,7h-.94v-7h.94Zm-1.88,0h-.93v-7h.93Zm4.68,0v-7h1v7Z"/><rect class="cls-2" x="13.67" y="17.63" width="0.94" height="6.93"/><rect class="cls-2" x="15.54" y="17.63" width="0.94" height="6.93"/><rect class="cls-2" x="11.8" y="17.63" width="0.94" height="6.93"/><rect class="cls-2" x="9.93" y="17.63" width="0.94" height="6.93"/></g></g></svg>