<svg xmlns="http://www.w3.org/2000/svg" viewBox="0 0 80 80"><defs><style>.cls-1{fill:#52822e;}.cls-2{fill:none;stroke:#52822e;stroke-miterlimit:10;stroke-width:3px;}.cls-3,.cls-4{fill:#fff;}.cls-4{font-size:14px;font-family:Helvetica-Bold, Helvetica;font-weight:700;}.cls-5{font-size:12px;font-family:Helvetica;font-weight:400;}</style></defs><title>Element 4</title><g id="Ebene_2" data-name="Ebene 2"><g id="Isolationsmodus"><circle class="cls-1" cx="40" cy="40" r="32.5"/><circle class="cls-2" cx="40" cy="40" r="38.49"/><g id="NNYwxe.tif"><path class="cls-3" d="M28.44,40.44V24.13a11.69,11.69,0,0,1,2-2.81,10.64,10.64,0,0,1,3.46-1.49,28.73,28.73,0,0,1,3.38-.58h6.56l1.27.19c3.17.44,6.29.95,7.35,4.69V40.44a5.6,5.6,0,0,1-3.64,4.05c-.46.15-.93.23-1.57.38a19.65,19.65,0,0,1,1.65,1.6,5.28,5.28,0,0,1,.56,1.28H46.26c-.91-1-1.81-1.93-2.73-2.88a.66.66,0,0,0-.43-.11c-1.77,0-3.65-.33-5.28.16-1.15.34-2,1.79-3,2.75a.22.22,0,0,0,0,.08H31.44A4.38,4.38,0,0,1,32,46.47a14.45,14.45,0,0,1,1.6-1.39,30.54,30.54,0,0,1-3.15-1.48A5.53,5.53,0,0,1,28.44,40.44ZM38.9,25.31H31.52V31.2H38.9Zm10.5,0H42V31.2H49.4ZM35.94,39.52a2.25,2.25,0,1,0-2.29,2.23A2.26,2.26,0,0,0,35.94,39.52Zm13.5,0a2.25,2.25,0,1,0-2.29,2.23A2.26,2.26,0,0,0,49.44,39.52Z"/></g><text class="cls-4" transform="translate(26.53 62.38)">2<tspan class="cls-5" x="7.79" y="0">min</tspan></text></g></g></svg>