<svg xmlns="http://www.w3.org/2000/svg" viewBox="0 0 80 80"><defs><style>.cls-1{fill:#52822e;}.cls-2{font-size:14px;font-family:Helvetica-Bold, Helvetica;font-weight:700;}.cls-2,.cls-4{fill:#fff;}.cls-3{font-size:12px;font-family:Helvetica;font-weight:400;}.cls-5{fill:none;stroke:#52822e;stroke-miterlimit:10;stroke-width:3px;}</style></defs><title>Element 9</title><g id="Ebene_2" data-name="Ebene 2"><g id="Isolationsmodus"><circle class="cls-1" cx="39.82" cy="39.66" r="32.5"/><text class="cls-2" transform="translate(26.4 61.04)">7<tspan class="cls-3" x="7.79" y="0">min</tspan></text><path class="cls-4" d="M43.15,26.08l-.91-.14H37.53a21.45,21.45,0,0,0-2.42.42,7.5,7.5,0,0,0-2.47,1.07,4.22,4.22,0,0,0-1.42,2,22.67,22.67,0,0,0,0,11.68,3.91,3.91,0,0,0,1.45,2.27,21,21,0,0,0,2.25,1.06,9.49,9.49,0,0,0-1.14,1,2.91,2.91,0,0,0-.41.91h2.42l0,0c.7-.69,1.29-1.73,2.12-2a13.57,13.57,0,0,1,3.78-.11.44.44,0,0,1,.31.08c.66.68,1.3,1.37,1.95,2.06h2.29a4.28,4.28,0,0,0-.41-.92,14.54,14.54,0,0,0-1.18-1.14c.46-.11.8-.17,1.12-.27a4,4,0,0,0,2.61-2.91,25.31,25.31,0,0,0,0-11.68C47.81,26.72,45.42,26.39,43.15,26.08Zm-7.2,16a1.61,1.61,0,1,1,1.64-1.59A1.63,1.63,0,0,1,36,42.06Zm1.66-5.55H34.13a.71.71,0,0,1-.71-.71V30.85a.57.57,0,0,1,.57-.56h3.7a.63.63,0,0,1,.63.62V35.8A.71.71,0,0,1,37.61,36.51Zm3.71-.64V30.93a.64.64,0,0,1,.64-.64H45.6a.64.64,0,0,1,.64.64v4.94a.64.64,0,0,1-.64.64H42A.64.64,0,0,1,41.32,35.87Zm2.3,6.19a1.61,1.61,0,1,1,1.64-1.6A1.63,1.63,0,0,1,43.62,42.06Z"/><path class="cls-4" d="M57.05,31.23A17.25,17.25,0,0,0,22.59,31c0,.33,0,14.07,0,14.21a1.43,1.43,0,0,0,2.86,0c0-.64,0-13.57,0-14.07a14.39,14.39,0,0,1,28.74.16c0,.42,0,13.32,0,13.91a1.44,1.44,0,0,0,2.87,0C57.07,45.09,57.06,31.48,57.05,31.23Z"/><circle class="cls-5" cx="40" cy="40" r="38.49"/></g></g></svg>